<mxfile host="Electron" modified="2023-10-18T12:56:23.491Z" agent="Mozilla/5.0 (X11; Linux x86_64) AppleWebKit/537.36 (KHTML, like Gecko) draw.io/22.0.2 Chrome/114.0.5735.289 Electron/25.8.4 Safari/537.36" etag="u2Q0An3SG5VA8hU9XdA-" version="22.0.2" type="device">
  <diagram name="Page-1" id="s1iIJNLQm_feeAUxPTrX">
    <mxGraphModel dx="1118" dy="979" grid="1" gridSize="10" guides="1" tooltips="1" connect="1" arrows="1" fold="1" page="1" pageScale="1" pageWidth="827" pageHeight="1169" math="0" shadow="0">
      <root>
        <mxCell id="0" />
        <mxCell id="1" parent="0" />
        <mxCell id="gdbxGBDsbOmqj8yGOonJ-1" value="" style="ellipse;fillColor=strokeColor;html=1;" vertex="1" parent="1">
          <mxGeometry x="399" y="90" width="30" height="30" as="geometry" />
        </mxCell>
        <mxCell id="gdbxGBDsbOmqj8yGOonJ-2" value="IDLE" style="rounded=1;whiteSpace=wrap;html=1;" vertex="1" parent="1">
          <mxGeometry x="354" y="180" width="120" height="60" as="geometry" />
        </mxCell>
        <mxCell id="gdbxGBDsbOmqj8yGOonJ-3" value="" style="endArrow=classic;html=1;rounded=0;exitX=0.5;exitY=1;exitDx=0;exitDy=0;" edge="1" parent="1" source="gdbxGBDsbOmqj8yGOonJ-1" target="gdbxGBDsbOmqj8yGOonJ-2">
          <mxGeometry width="50" height="50" relative="1" as="geometry">
            <mxPoint x="390" y="530" as="sourcePoint" />
            <mxPoint x="440" y="480" as="targetPoint" />
          </mxGeometry>
        </mxCell>
        <mxCell id="gdbxGBDsbOmqj8yGOonJ-5" value="Demarrage" style="edgeLabel;html=1;align=center;verticalAlign=middle;resizable=0;points=[];" vertex="1" connectable="0" parent="gdbxGBDsbOmqj8yGOonJ-3">
          <mxGeometry x="-0.279" y="5" relative="1" as="geometry">
            <mxPoint x="-5" as="offset" />
          </mxGeometry>
        </mxCell>
        <mxCell id="gdbxGBDsbOmqj8yGOonJ-4" value="RUN" style="rounded=1;whiteSpace=wrap;html=1;" vertex="1" parent="1">
          <mxGeometry x="354" y="320" width="120" height="60" as="geometry" />
        </mxCell>
        <mxCell id="gdbxGBDsbOmqj8yGOonJ-25" value="Commande&lt;br&gt;de suretÃ© &lt;br&gt;de fonctionnement" style="verticalLabelPosition=bottom;verticalAlign=top;html=1;shape=mxgraph.basic.patternFillRect;fillStyle=diagGrid;step=5;fillStrokeWidth=0.2;fillStrokeColor=#dddddd;rotation=0;dashed=1;" vertex="1" parent="1">
          <mxGeometry x="500" y="285" width="150" height="115" as="geometry" />
        </mxCell>
        <mxCell id="gdbxGBDsbOmqj8yGOonJ-6" value="" style="endArrow=classic;html=1;rounded=0;exitX=0.5;exitY=1;exitDx=0;exitDy=0;entryX=0.5;entryY=0;entryDx=0;entryDy=0;" edge="1" parent="1" source="gdbxGBDsbOmqj8yGOonJ-2" target="gdbxGBDsbOmqj8yGOonJ-4">
          <mxGeometry width="50" height="50" relative="1" as="geometry">
            <mxPoint x="390" y="530" as="sourcePoint" />
            <mxPoint x="440" y="480" as="targetPoint" />
          </mxGeometry>
        </mxCell>
        <mxCell id="gdbxGBDsbOmqj8yGOonJ-7" value="Start with watchdog&lt;br&gt;ou&lt;br&gt;Start without watchdog" style="edgeLabel;html=1;align=center;verticalAlign=middle;resizable=0;points=[];rotation=0;" vertex="1" connectable="0" parent="gdbxGBDsbOmqj8yGOonJ-6">
          <mxGeometry x="-0.1336" y="1" relative="1" as="geometry">
            <mxPoint as="offset" />
          </mxGeometry>
        </mxCell>
        <mxCell id="gdbxGBDsbOmqj8yGOonJ-11" value="" style="curved=1;endArrow=classic;html=1;rounded=0;exitX=1;exitY=0.25;exitDx=0;exitDy=0;entryX=1;entryY=0.75;entryDx=0;entryDy=0;" edge="1" parent="1" source="gdbxGBDsbOmqj8yGOonJ-4" target="gdbxGBDsbOmqj8yGOonJ-4">
          <mxGeometry width="50" height="50" relative="1" as="geometry">
            <mxPoint x="480" y="340" as="sourcePoint" />
            <mxPoint x="540" y="370" as="targetPoint" />
            <Array as="points">
              <mxPoint x="540" y="320" />
              <mxPoint x="560" y="330" />
              <mxPoint x="570" y="350" />
              <mxPoint x="550" y="380" />
            </Array>
          </mxGeometry>
        </mxCell>
        <mxCell id="gdbxGBDsbOmqj8yGOonJ-12" value="Reset watchdog&amp;nbsp;&lt;br&gt;(si le watchdog est actif)" style="edgeLabel;html=1;align=center;verticalAlign=middle;resizable=0;points=[];" vertex="1" connectable="0" parent="gdbxGBDsbOmqj8yGOonJ-11">
          <mxGeometry x="-0.0635" y="1" relative="1" as="geometry">
            <mxPoint as="offset" />
          </mxGeometry>
        </mxCell>
        <mxCell id="gdbxGBDsbOmqj8yGOonJ-20" value="Commandes&lt;br&gt;de mouvement" style="verticalLabelPosition=bottom;verticalAlign=top;html=1;shape=mxgraph.basic.patternFillRect;fillStyle=diagGrid;step=5;fillStrokeWidth=0.2;fillStrokeColor=#dddddd;rotation=0;dashed=1;" vertex="1" parent="1">
          <mxGeometry x="200" y="285" width="130" height="115" as="geometry" />
        </mxCell>
        <mxCell id="gdbxGBDsbOmqj8yGOonJ-13" value="" style="curved=1;endArrow=classic;html=1;rounded=0;exitX=0;exitY=0.25;exitDx=0;exitDy=0;entryX=0;entryY=0.75;entryDx=0;entryDy=0;" edge="1" parent="1" source="gdbxGBDsbOmqj8yGOonJ-4" target="gdbxGBDsbOmqj8yGOonJ-4">
          <mxGeometry width="50" height="50" relative="1" as="geometry">
            <mxPoint x="260" y="330" as="sourcePoint" />
            <mxPoint x="310" y="280" as="targetPoint" />
            <Array as="points">
              <mxPoint x="320" y="320" />
              <mxPoint x="310" y="320" />
              <mxPoint x="250" y="320" />
              <mxPoint x="260" y="380" />
            </Array>
          </mxGeometry>
        </mxCell>
        <mxCell id="gdbxGBDsbOmqj8yGOonJ-14" value="Move&amp;nbsp;&lt;br&gt;ou&lt;br&gt;Turn" style="edgeLabel;html=1;align=center;verticalAlign=middle;resizable=0;points=[];" vertex="1" connectable="0" parent="gdbxGBDsbOmqj8yGOonJ-13">
          <mxGeometry x="-0.0409" y="1" relative="1" as="geometry">
            <mxPoint as="offset" />
          </mxGeometry>
        </mxCell>
        <mxCell id="gdbxGBDsbOmqj8yGOonJ-27" value="Commandes&lt;br&gt;de surveillance" style="verticalLabelPosition=bottom;verticalAlign=top;html=1;shape=mxgraph.basic.patternFillRect;fillStyle=diagGrid;step=5;fillStrokeWidth=0.2;fillStrokeColor=#dddddd;rotation=0;dashed=1;" vertex="1" parent="1">
          <mxGeometry x="349" y="400" width="130" height="115" as="geometry" />
        </mxCell>
        <mxCell id="gdbxGBDsbOmqj8yGOonJ-26" value="" style="curved=1;endArrow=classic;html=1;rounded=0;exitX=0.25;exitY=1;exitDx=0;exitDy=0;entryX=0.75;entryY=1;entryDx=0;entryDy=0;" edge="1" parent="1" source="gdbxGBDsbOmqj8yGOonJ-4" target="gdbxGBDsbOmqj8yGOonJ-4">
          <mxGeometry width="50" height="50" relative="1" as="geometry">
            <mxPoint x="399" y="470" as="sourcePoint" />
            <mxPoint x="449" y="420" as="targetPoint" />
            <Array as="points">
              <mxPoint x="380" y="460" />
              <mxPoint x="450" y="460" />
            </Array>
          </mxGeometry>
        </mxCell>
        <mxCell id="gdbxGBDsbOmqj8yGOonJ-28" value="Get battery&lt;br&gt;Get status" style="edgeLabel;html=1;align=center;verticalAlign=middle;resizable=0;points=[];" vertex="1" connectable="0" parent="gdbxGBDsbOmqj8yGOonJ-26">
          <mxGeometry x="-0.0101" y="-2" relative="1" as="geometry">
            <mxPoint y="8" as="offset" />
          </mxGeometry>
        </mxCell>
      </root>
    </mxGraphModel>
  </diagram>
</mxfile>
